<svg width="117" height="112" viewBox="0 0 117 112" fill="none" xmlns="http://www.w3.org/2000/svg">
<path d="M68.9688 71.5374C81.079 60.1687 93.6713 49.1343 105.375 37.3602C114.51 28.1695 107.866 9.89354 93.7439 10.6406C89.5627 10.8621 86.4583 13.1343 83.5465 15.7977C78.3098 20.5881 73.1953 25.5151 68.0218 30.3718C56.071 41.5909 43.6865 52.4971 32.1071 64.0874C20.9296 75.2751 37.9448 91.3367 49.8538 81.6869C62.2953 71.6052 73.4601 59.526 85.1265 48.574C86.9074 46.9022 84.2655 44.1765 82.4819 45.8509L53.9784 72.609C51.3757 75.0524 48.6656 78.5271 45.4086 80.2246C37.0103 84.6017 28.2145 73.5303 34.7517 66.8105C43.5933 57.7218 53.3513 49.3498 62.6014 40.666C70.7995 32.97 78.6772 24.4824 87.414 17.3728C95.5486 10.7534 108.04 18.6057 106.078 28.8819C105.455 32.1494 103.976 33.4677 101.757 35.5507L40.7998 92.7751C36.5005 96.8112 31.6779 101.186 25.2724 100.632C17.9904 100.002 11.6627 92.6502 11.6182 85.6498C11.5554 75.7179 25.635 66.3339 32.0456 60.3158L63.1398 31.1256C64.9207 29.4538 62.2788 26.7281 60.4952 28.4025L26.4366 60.3756C19.4864 66.9002 8.24175 74.505 7.79181 84.9136C7.50471 91.5666 11.7473 98.3878 17.4564 101.863C24.8192 106.345 33.1109 104.277 39.4927 99.1091C49.8884 90.691 59.2368 80.6734 68.9688 71.5374Z" fill="#D69CD4"/>
</svg>
