<svg width="102" height="100" viewBox="0 0 102 100" fill="none" xmlns="http://www.w3.org/2000/svg">
<path d="M43.2476 41.8111C43.0671 41.8687 42.9629 41.9183 42.935 41.9599C42.6811 42.3415 42.5186 42.5683 42.4476 42.6403C41.8128 43.2779 41.2823 43.7467 40.856 44.0467C39.529 44.9803 37.9925 45.4987 36.2464 45.6019C36.212 45.6035 35.814 45.5703 35.0523 45.5023C33.9218 45.4003 32.8775 44.9395 31.9937 44.2855C30.4559 43.1495 29.2859 41.7215 28.4835 40.0015C28.0755 39.1263 27.7234 38.0443 27.4272 36.7555C27.1693 35.6371 27.0268 34.5079 26.9996 33.3679C26.9278 30.3427 27.3529 27.5911 28.5625 24.9787C29.024 23.9811 29.6891 22.9587 30.5577 21.9115C32.6667 19.3675 35.8116 17.9815 39.1134 18.4591C40.0967 18.6007 41.1578 19.0255 42.0248 19.4083C42.0321 19.4114 42.0399 19.4128 42.0477 19.4123C42.0556 19.4119 42.0632 19.4097 42.0699 19.4058C42.0767 19.402 42.0824 19.3966 42.0866 19.3902C42.0909 19.3837 42.0935 19.3764 42.0943 19.3687C42.2524 17.8447 42.1825 16.3251 41.8847 14.8099C41.6751 13.7467 41.2679 12.6535 40.3913 12.0259C39.3482 11.2783 38.0188 11.6647 37.2021 12.5191C36.8452 12.8919 36.4975 13.3523 36.1589 13.9003C35.7725 14.5259 35.4012 15.1247 35.0452 15.6967C34.5601 16.4767 33.7086 17.2147 32.8056 17.4703C31.1338 17.9443 29.2404 17.4343 28.2104 16.0075C27.8216 15.4699 27.5433 14.8463 27.3757 14.1367C26.8639 11.9655 27.0503 9.82913 27.935 7.72753C28.1992 7.10194 28.412 6.65634 28.5733 6.39074C29.2352 5.30114 30.0639 4.33114 31.0595 3.48074C31.3877 3.20154 31.8 2.87474 32.2967 2.50034C32.4292 2.40034 32.8472 2.14954 33.5505 1.74795C34.9182 0.966747 36.4535 0.475948 38.0332 0.185549C39.2196 -0.0328506 40.2947 -0.0584505 41.2584 0.108749C42.4288 0.311949 43.4524 0.651548 44.329 1.12755C45.8029 1.92755 46.9993 3.03274 47.9183 4.44314C49.6236 7.06034 50.3482 10.0807 50.6081 13.2331C50.8799 16.5175 50.7578 20.0071 50.4895 23.2243C50.3139 25.3331 50.2252 27.5143 50.2236 29.7679C50.2228 30.3847 50.2584 31.0215 50.3302 31.6783C50.5015 33.2359 50.6524 34.6411 51.5207 35.6983C51.8744 36.1295 52.2125 36.5511 52.535 36.9631C53.0021 37.5595 53.2692 38.1895 53.3925 38.9791C53.6859 40.8703 53.2811 42.9379 52.3638 44.6395C51.9797 45.3515 51.5466 45.9011 51.0644 46.2883C49.9817 47.1559 48.2464 47.7487 46.9015 47.1391C46.1446 46.7959 45.565 46.3899 45.1626 45.9211C44.6679 45.3439 44.2081 44.5435 43.9314 43.7179C43.7015 43.0299 43.549 42.4023 43.4739 41.8351C43.4683 41.7903 43.4216 41.7523 43.3338 41.7211C43.3282 41.7187 43.3202 41.7295 43.3099 41.7535C43.3042 41.767 43.2957 41.7791 43.285 41.7891C43.2742 41.799 43.2615 41.8065 43.2476 41.8111ZM39.9458 33.5683C40.0176 33.3995 40.0564 33.2299 40.0619 33.0595C40.1019 31.7619 40.1138 30.2835 40.0979 28.6243C40.0931 28.1095 40.1913 27.3535 39.632 27.0943C37.6655 26.1811 35.7458 27.8119 35.311 29.6695C34.9733 31.1119 35.135 33.2791 36.4284 34.2379C37.0432 34.6939 37.7593 34.7723 38.5769 34.4731C38.9849 34.3243 39.4168 34.0559 39.8727 33.6679C39.9042 33.6411 39.9292 33.607 39.9458 33.5683Z" fill="#FCEFDA"/>
<path d="M55.4176 19.7514C55.4284 19.7516 55.439 19.7495 55.4489 19.7454C55.4588 19.7412 55.4677 19.735 55.475 19.7271C55.4822 19.7193 55.4877 19.71 55.491 19.6999C55.4944 19.6898 55.4955 19.6791 55.4943 19.6686C55.1917 16.9006 54.9893 14.1974 54.8871 11.559C54.8639 10.9534 54.8875 10.1222 54.9577 9.0654C55.0479 7.715 55.3162 6.393 55.7625 5.0994C56.7493 2.23861 59.0464 0.367814 62.111 0.275414C64.9781 0.189014 67.8464 1.41421 70.0727 3.19141C71.6141 4.42261 72.7925 6.111 73.4859 7.9314C74.0983 9.5402 74.4292 11.109 74.4787 12.6378C74.4971 13.1858 74.4232 13.9254 74.2572 14.8566C74.1606 15.399 73.9949 15.8582 73.7602 16.2342C73.2548 17.0418 72.7087 17.6346 71.7422 17.8866C70.341 18.2538 69.0033 18.1702 67.729 17.6358C66.4564 17.1022 65.6663 16.139 65.359 14.7462C65.2815 14.3958 65.2739 14.061 65.3362 13.7418C65.5079 12.8594 65.5981 12.3978 65.6069 12.357C65.85 11.2242 65.7745 10.2222 65.0655 9.32699C64.5853 8.7198 63.6895 8.5086 62.9565 8.9322C62.2488 9.3414 61.8871 10.7814 61.8009 11.5362C61.4979 14.1762 61.7554 16.803 62.2655 19.3842C62.3338 19.7298 62.5326 19.875 62.9027 19.8738C63.3817 19.873 64.0963 19.897 65.0464 19.9458C65.7578 19.983 66.5446 19.941 67.4416 19.9686C68.0931 19.9886 68.5282 20.0294 68.747 20.091C69.5889 20.3274 69.9614 21.0894 70.1614 21.9426C70.5071 23.4282 70.5681 24.8922 70.3446 26.3346C70.2021 27.2526 69.8883 27.993 69.4045 28.7118C69.1829 29.0406 68.4356 29.0106 68.0787 28.9434C67.1877 28.7754 66.2947 28.6022 65.3997 28.4238C65.2967 28.4038 64.9039 28.3586 64.2212 28.2882C63.8739 28.2522 63.6332 28.023 63.2991 28.3194C63.2756 28.3397 63.2589 28.3669 63.2512 28.3974C63.2033 28.587 63.1881 28.7734 63.2057 28.9566C63.3757 30.6762 63.4224 32.3117 63.5649 34.1153C63.8811 38.1217 64.1506 41.6417 64.3733 44.6753C64.5901 47.6285 64.6751 50.8589 64.4787 53.9741C64.3997 55.2229 64.1035 56.3977 63.5901 57.4985C63.1709 58.3961 62.3386 59.1617 61.5086 59.7125C60.1685 60.6029 58.5829 60.8153 57.0523 60.3857C55.8907 60.0601 54.9825 59.4197 54.3278 58.4645C53.8966 57.8349 53.5952 56.9857 53.4236 55.9169C53.1493 54.2093 53.3254 52.6397 53.7374 50.9477C54.7877 46.6313 55.644 42.7289 56.044 38.4857C56.0895 38.0057 56.1282 37.3733 56.1601 36.5885C56.1785 36.1573 56.212 35.5229 56.2607 34.6853C56.3406 33.3269 56.3589 32.1669 56.3158 31.2053C56.2807 30.4326 56.234 29.4158 56.1757 28.155C56.1701 28.0238 56.1086 27.871 55.9913 27.6966C55.9801 27.6803 55.9651 27.6669 55.9476 27.6577C55.9301 27.6485 55.9105 27.6437 55.8907 27.6438H54.0631C53.96 27.6437 53.8604 27.609 53.7805 27.5454C53.3781 27.2246 53.109 26.8066 52.9733 26.2914C52.6962 25.2322 52.5689 24.261 52.5912 23.3778C52.6176 22.3374 52.6906 19.5198 54.4463 19.689C54.7641 19.7202 55.0879 19.741 55.4176 19.7514Z" fill="#FCEFDA"/>
<path d="M15.921 25.5451C15.4691 25.3539 14.9904 25.3595 14.485 25.5619C13.3389 26.0191 12.5185 27.1063 11.9892 28.1935C11.2076 29.8006 10.7597 31.4742 10.6455 33.2142C10.5904 34.0494 10.6531 34.8362 10.8335 35.5746C10.9597 36.0906 11.1265 36.4886 11.3341 36.7686C11.885 37.5126 12.6802 38.1642 13.6874 38.0226C14.7501 37.8722 15.6036 37.379 16.2479 36.543C17.0575 35.4934 17.6675 34.7266 18.0778 34.2426C18.3493 33.9218 18.7836 33.5774 19.3808 33.2094C21.2743 32.0406 23.6156 32.3778 24.806 34.3518C26.0252 36.3702 25.8503 38.943 24.994 41.1114C24.4926 42.3818 23.8264 43.5242 22.9952 44.5386C22.8052 44.7706 22.3577 45.2122 21.6527 45.8634C20.7441 46.7034 19.5976 47.385 18.2132 47.9082C18.1078 47.9482 17.719 48.069 17.0467 48.2706C16.2539 48.5094 15.5689 48.555 14.8227 48.693C14.5273 48.7474 14.1796 48.7842 13.7796 48.8034C11.6998 48.9018 9.7896 48.681 8.04908 48.141C7.15007 47.8618 6.19358 47.4234 5.17961 46.8258C3.40475 45.7782 2.02391 44.1546 1.32211 42.2058C0.814324 40.7946 0.612327 39.3078 0.71612 37.7454C0.790371 36.6222 0.984385 35.3682 1.29217 34.2126C1.98279 31.627 3.00754 29.1395 4.36643 26.7499C4.79997 25.9879 5.06344 25.4455 5.47302 24.8227C6.15326 23.7851 6.86265 22.7967 7.60117 21.8575C9.12533 19.9183 10.8714 18.2571 12.8395 16.8739C13.3106 16.5427 13.9513 16.1643 14.7617 15.7387C15.9601 15.1099 17.1729 14.6875 18.4 14.4715C20.1808 14.1583 22.0695 14.4787 23.5294 15.6031C24.0563 16.0087 24.5218 16.5991 24.9258 17.3743C25.4535 18.3879 25.727 19.4979 25.7461 20.7043C25.7501 20.9483 25.7206 21.3947 25.6575 22.0435C25.4431 24.2731 24.3653 26.3947 22.4072 27.5695C21.782 27.9439 21.2399 28.1831 20.7808 28.2871C20.1597 28.4279 19.5681 28.4687 19.006 28.4095C18.1453 28.3183 17.4595 27.8755 16.9485 27.0811C16.6611 26.6335 16.4383 25.7635 15.921 25.5451Z" fill="#FCEFDA"/>
<path d="M80.3805 34.4346C80.3669 34.4523 80.3581 34.4731 80.3547 34.4951C80.3514 34.5171 80.3536 34.5397 80.3613 34.5606C80.4595 34.8306 80.5853 35.169 80.6763 35.541C81.0523 37.0734 82.0511 38.4858 83.4236 39.2862C84.8488 40.1166 86.4991 40.1418 88.0092 39.483C88.9442 39.075 89.7134 38.5058 90.317 37.7754C91.0524 36.885 91.533 36.3098 91.759 36.0498C92.4679 35.233 93.3222 34.8406 94.3218 34.8726C96.4835 34.9422 98.4799 36.8442 99.3949 38.6778C99.7901 39.4698 100.08 40.767 99.9063 41.6634C99.7506 42.471 99.5877 43.065 99.1314 43.7958C98.3586 45.031 97.2883 46.047 95.9206 46.8438C94.5721 47.6298 93.2679 48.2118 91.8188 48.5346C90.3003 48.8745 88.8412 49.0565 87.4416 49.0805C86.4396 49.0981 85.2939 48.9981 84.0044 48.7805C81.8248 48.4122 79.7386 47.3706 78.0392 45.969C77.6455 45.6442 77.0934 45.0606 76.3829 44.2182C75.1182 42.7182 74.1505 40.8342 73.535 39.0174C73.3433 38.451 73.1022 37.5526 72.8116 36.3222C72.5026 35.015 72.3274 33.6294 72.2859 32.1654C72.2467 30.7926 72.2627 29.583 72.3338 28.5366C72.5218 25.779 73.238 22.8798 74.6583 20.469C74.6887 20.4178 74.9609 20.0438 75.4751 19.347C76.2847 18.249 77.3924 17.3358 78.5014 16.785C79.8356 16.125 81.2695 15.8674 82.8032 16.0122C83.5673 16.0854 84.4883 16.173 85.2416 16.4046C86.9673 16.9374 88.323 17.6598 89.7805 18.7314C91.6356 20.0946 93.0129 21.8562 94.0105 23.9274C94.5646 25.0778 94.9266 26.2302 95.0967 27.3846C95.4089 29.5038 94.8212 31.2582 93.3338 32.6478C92.5266 33.4026 91.6093 33.8478 90.3218 34.329C88.7087 34.9338 87.2691 35.049 85.4571 35.0526C84.0903 35.0542 82.7478 34.8694 81.4296 34.4982C81.3843 34.4854 81.3412 34.4673 81.3014 34.4442C80.9793 34.2618 80.6955 34.0338 80.3805 34.4346ZM80.3613 27.7638C80.3669 27.8322 80.3891 27.8981 80.4261 27.9559C80.463 28.0136 80.5136 28.0614 80.5733 28.095C81.0747 28.3766 81.5342 28.5778 81.9517 28.6986C82.0028 28.713 82.3438 28.773 82.9745 28.8786C84.22 29.0874 85.9362 28.6422 86.7326 27.7374C87.1134 27.3054 87.2152 26.5458 87.1098 25.9278C86.8548 24.453 85.7182 23.163 84.1997 23.0226C82.7242 22.8858 81.3709 23.943 80.9026 25.3422C80.547 26.403 80.2931 26.9502 80.3613 27.7638Z" fill="#FCEFDA"/>
<path d="M67.3338 92.6537C67.2907 92.8313 67.0919 93.0053 67.0128 93.1949C66.8539 93.5773 66.523 94.1697 66.02 94.9721C65.3414 96.0521 64.4136 96.9229 63.2368 97.5845C62.1026 98.2217 60.8787 98.2673 59.6188 97.9961C59.285 97.9241 58.9852 97.8145 58.7194 97.6673C57.7773 97.1473 57.0184 96.5077 56.4427 95.7485C55.721 94.7957 55.1625 93.7857 54.7673 92.7185C54.5146 92.0393 54.2152 91.2353 54.02 90.4217C53.5242 88.3505 53.2918 86.5301 53.1517 84.5165C52.8419 80.0789 53.2188 75.7125 54.2822 71.4173C54.8152 69.2633 55.8068 66.9018 57.1793 65.199C57.7549 64.4846 58.515 63.867 59.4595 63.3462C60.634 62.699 61.9074 62.5282 63.2799 62.8338C64.2679 63.0534 65.226 63.6654 65.9134 64.239C66.0483 64.3518 66.2208 64.5734 66.4308 64.9038C66.4457 64.9274 66.4663 64.9472 66.4907 64.9614L66.808 65.145C66.8146 65.1488 66.8219 65.1512 66.8295 65.152C66.8371 65.1528 66.8448 65.152 66.852 65.1496C66.8593 65.1473 66.8659 65.1434 66.8715 65.1382C66.8772 65.1331 66.8816 65.1268 66.8847 65.1198C67.0068 64.8414 66.8787 64.7022 66.8907 64.4562C66.9178 63.9106 66.9178 63.407 66.8907 62.9454C66.8108 61.611 66.7561 60.4098 66.7266 59.3418C66.6915 58.0266 66.6416 56.8242 66.5769 55.7346C66.3278 51.4986 66.2032 49.3694 66.2032 49.347C66.204 49.2222 66.1653 48.7882 66.0871 48.045C65.9633 46.861 66.1094 45.7086 66.5254 44.5878C66.8655 43.6718 67.537 42.9582 68.5398 42.447C68.7442 42.3422 69.1302 42.2386 69.6979 42.1362C70.1649 42.0514 70.5749 42.0426 70.9278 42.1098C72.3003 42.3738 73.5865 43.1106 74.0751 44.4438C74.4979 45.597 74.3829 47.1174 74.238 48.3678C73.9442 50.895 73.6611 53.8754 73.3889 57.309C73.3011 58.4194 73.2464 59.2258 73.2248 59.7282C73.1825 60.7346 73.1446 61.3982 73.111 61.719C73.02 62.5734 73.0392 63.4326 72.9853 64.3746C72.7745 68.0625 72.7102 71.7673 72.7925 75.4889C72.8296 77.1665 72.9422 78.9305 73.008 80.3933C73.0823 82.0409 73.2033 83.5901 73.3314 85.3301C73.4655 87.1637 73.7589 89.0669 73.8823 90.7553C73.9031 91.0313 73.9062 91.3841 73.8919 91.8137C73.8476 93.1217 73.1506 94.3877 72.1637 95.1857C72.048 95.2793 71.7649 95.4621 71.3146 95.7341C70.7218 96.0929 70.0895 96.2285 69.4068 96.2009C68.6931 96.1721 68.214 95.7797 67.9733 95.1533C67.717 94.4861 67.5753 93.7385 67.5481 92.9105C67.5466 92.8601 67.5002 92.7697 67.4092 92.6393C67.4046 92.6326 67.3982 92.6273 67.3906 92.6242C67.3831 92.6211 67.3748 92.6202 67.3668 92.6218C67.3588 92.6233 67.3514 92.6271 67.3455 92.6328C67.3397 92.6385 67.3356 92.6457 67.3338 92.6537ZM60.7314 86.2589C61.117 87.0485 61.9433 87.8093 62.8571 87.2165C63.2483 86.9629 63.5298 86.6729 63.7014 86.3465C63.9098 85.9505 64.2284 85.0601 64.3194 84.5369C64.5781 83.0305 64.7222 81.5541 64.7517 80.1077C64.7733 79.0121 64.6463 77.9201 64.5613 76.8677C64.4703 75.7525 64.2284 74.7285 63.8356 73.7957C63.4787 72.9485 62.5062 72.1229 61.6248 72.9281C61.2863 73.2369 61.018 73.6161 60.82 74.0657C60.5118 74.7657 60.3002 75.4161 60.1852 76.0169C59.6671 78.7337 59.6479 81.4585 60.1278 84.1913C60.2795 85.0577 60.4807 85.7469 60.7314 86.2589Z" fill="#FCEFDA"/>
<path d="M30.0198 57.8514L30.3264 57.9114C30.3896 57.924 30.4545 57.9228 30.5169 57.9078L32.2606 57.4806C32.3017 57.4704 32.3447 57.4742 32.3827 57.4914C32.6151 57.5962 32.77 57.6982 32.8474 57.7974C33.0893 58.1094 33.2486 58.497 33.3276 58.8882C33.5672 60.0722 33.6821 61.1554 33.6726 62.1378C33.6638 62.9954 33.5732 63.9658 33.4007 65.049C33.2921 65.7313 33.0454 66.2753 32.6606 66.6809C32.4777 66.8737 32.2302 66.9237 31.9181 66.8309C30.9153 66.5341 30.2729 66.3769 29.9911 66.3593C29.6909 66.3417 29.5304 66.4933 29.5097 66.8141C29.4514 67.7309 29.3971 69.6101 29.3468 72.4517C29.3149 74.2669 29.3719 76.4177 29.518 78.9041C29.5867 80.0745 29.7468 81.1617 29.9983 82.1657C30.162 82.8169 30.4206 83.4157 30.7743 83.9621C31.0666 84.4133 31.4817 84.6357 32.0199 84.6293C32.328 84.6261 32.5723 84.5721 32.7528 84.4673C33.1743 84.2233 33.6143 83.8365 34.0726 83.3069C34.1286 83.2421 34.2039 83.196 34.2881 83.1749L34.6989 83.0753C34.7329 83.0668 34.769 83.071 34.8007 83.0873C35.0857 83.2377 35.3069 83.4341 35.4642 83.6765C36.6247 85.4609 36.9025 87.9029 36.6977 89.9789C36.5336 91.6517 35.8785 93.4505 34.7312 94.6973C33.9632 95.5317 32.9779 96.0445 31.7755 96.2357C31.243 96.3205 30.8801 96.3497 30.6869 96.3233C29.5109 96.1637 28.3444 95.8205 27.3025 95.1101C26.132 94.3125 25.1963 93.2961 24.4953 92.0609C24.1456 91.4449 23.9057 90.9765 23.7755 90.6557C23.1887 89.2085 22.7432 87.4745 22.5959 85.7261C22.512 84.7397 22.4625 84.1065 22.4474 83.8265C22.3619 82.2185 22.3827 80.6493 22.5096 79.1189C22.7025 76.7813 22.8102 74.6489 22.9803 71.5853C23.0126 71.0093 23.1396 70.2581 23.1372 69.6245C23.1348 68.8621 23.1831 67.6861 23.2821 66.0965C23.2949 65.8845 23.2673 65.7025 23.1995 65.5505C23.1793 65.5055 23.1462 65.4674 23.1042 65.4411C23.0622 65.4148 23.0132 65.4016 22.9635 65.4029C22.546 65.4149 22.1428 65.4441 21.754 65.4905C21.2709 65.5473 20.9184 65.3502 20.6965 64.899C20.528 64.5566 20.417 64.2169 20.3635 63.8801C20.1975 62.8457 20.1727 61.8046 20.2893 60.7566C20.4162 59.6058 20.7288 57.975 22.3695 58.4322C22.7959 58.551 23.2306 58.569 23.2174 58.029C23.1911 56.9646 22.9899 55.9794 22.8857 54.9858C22.7316 53.517 22.6122 52.4854 22.5276 51.891C22.3919 50.9334 22.3432 50.2638 22.3815 49.8822C22.4494 49.2022 22.6174 48.553 22.8857 47.9346C23.0414 47.577 23.3116 47.2174 23.6965 46.8558C24.7516 45.8622 26.1372 45.1602 27.5324 44.9706C27.7791 44.937 28.0985 44.9682 28.4905 45.0642C29.3073 45.2658 29.7145 45.7818 30.0689 46.4946C30.4749 47.3106 30.651 48.5046 30.6115 49.2654C30.4797 51.8758 30.3743 53.4582 30.2953 54.0126C30.1324 55.1686 30.0015 56.3966 29.9025 57.6966C29.8997 57.7323 29.9102 57.7678 29.9318 57.7963C29.9534 57.8248 29.9848 57.8444 30.0198 57.8514Z" fill="#FCEFDA"/>
<path d="M34.8284 73.2726C34.7677 72.1486 34.7773 71.1486 34.8571 70.2726C34.9745 68.9898 35.0715 67.0494 35.3098 63.3438C35.408 61.819 35.3996 60.3902 35.2847 59.0574C35.22 58.305 35.0128 57.141 34.3936 56.7282C33.826 56.3502 33.3026 56.1978 33.2032 55.3398C33.1737 55.0862 33.1365 54.5626 33.0918 53.769C33.0511 53.0666 33.1573 52.1278 33.4104 50.9526C33.717 49.5282 34.7565 48.8178 36.1098 48.3978C37.432 47.9874 38.8416 48.1122 40.1134 48.6834C41.3182 49.2234 42.0823 50.4786 42.2715 51.7518C42.4583 53.0226 42.4691 54.0102 42.4032 55.2474C42.3302 56.6058 42.0883 58.365 42.0176 59.2914C41.9785 59.793 41.8871 60.6482 41.7434 61.857C41.4623 64.233 41.3134 66.4862 41.2967 68.6166C41.2911 69.3934 41.3398 70.2742 41.4428 71.259C41.5434 72.2166 41.7026 73.0602 41.9206 73.7898C42.0967 74.3766 42.4272 74.937 43.0308 75.1554C44.3925 75.6486 44.9709 73.5762 45.1039 72.699C45.3114 71.3166 45.3961 69.937 45.3577 68.5602C45.3082 66.773 45.1078 64.5814 44.7565 61.9854C44.5522 60.471 44.4192 59.1214 44.3577 57.9366C44.2703 56.2254 44.2583 54.7278 45.2152 53.4258C45.6655 52.8138 46.5793 52.3434 47.2751 52.1478C48.7805 51.7218 50.2296 52.3038 50.9194 53.7534C51.3075 54.567 51.5478 55.4846 51.6404 56.5062C52.1841 62.4714 52.2787 68.5794 51.9099 74.715C51.8699 75.3822 51.814 75.935 51.7422 76.3734C51.6392 76.9962 51.5913 77.8098 51.4452 78.5814C51.1937 79.9142 50.8671 81.1914 50.4655 82.413C49.8468 84.293 48.7609 85.811 47.208 86.967C45.7613 88.0446 43.5242 88.0746 41.8212 87.6186C39.6332 87.033 37.8691 84.9438 36.8966 82.9662C36.2835 81.719 35.8056 80.2354 35.4631 78.5154C35.1405 76.8922 34.929 75.1446 34.8284 73.2726Z" fill="#FCEFDA"/>
<path d="M11.808 72.9785C12.5984 73.1729 13.1181 72.3857 13.1613 71.6981C13.3684 68.3861 10.0654 66.7781 7.60436 65.5169C7.14927 65.2833 6.80396 65.1093 6.56843 64.9949C5.00994 64.2405 3.6259 63.2369 2.41632 61.9841C0.951245 60.4665 0.146851 58.6789 0.00313793 56.6213C-0.0176206 56.3205 0.0646149 55.8145 0.249845 55.1033C0.869008 52.7309 3.41991 51.2093 5.68579 50.7281C8.12093 50.2105 10.5137 50.2621 12.8643 50.8829C14.596 51.3401 16.378 52.4201 17.3457 54.0209C18.0243 55.1425 18.3545 56.3557 18.3361 57.6605C18.323 58.5833 18.0044 59.7197 17.4068 60.4265C16.9014 61.0241 16.2547 61.4041 15.4667 61.5665C14.469 61.7717 13.2331 61.6433 12.396 61.0649C11.6762 60.5657 11.2415 59.9909 10.9301 59.1125C10.6139 58.2221 10.3433 57.5441 9.38161 57.2825C8.57921 57.0653 7.89178 57.5177 7.70136 58.3097C7.64308 58.5537 7.66504 58.8453 7.76723 59.1845C8.20795 60.6449 9.51694 61.3193 10.7864 62.0033C11.0626 62.1529 11.4211 62.3249 11.8619 62.5193C12.6914 62.8857 13.4571 63.2349 14.1589 63.5669C16.3744 64.6157 18.3709 66.3281 19.5816 68.4845C20.9788 70.9733 21.521 73.6517 21.208 76.5196C21.1753 76.8204 21.1309 77.0728 21.0751 77.2768C20.9757 77.6344 20.9397 77.9632 20.8379 78.2728C20.5449 79.1576 20.2052 79.8928 19.8188 80.4784C19.1721 81.4564 18.0511 82.3516 16.8355 82.6168C16.3685 82.7188 15.6271 82.9624 14.9864 82.8628C14.6367 82.8084 14.1948 82.724 13.6607 82.6096C12.711 82.4068 12.0032 82.1104 11.1241 81.6904C11.0227 81.6416 10.6599 81.4272 10.0355 81.0472C9.64029 80.8064 9.28979 80.5624 8.984 80.3152C8.15845 79.6464 7.49258 79.0332 6.98639 78.4756C6.38679 77.8148 5.72132 76.9708 4.98998 75.9436C4.70814 75.5476 4.4766 75.1633 4.29537 74.7905C4.0283 74.2409 3.68099 73.7441 3.44506 73.2185C2.675 71.5037 2.06781 70.0949 2.27979 68.3993C2.41752 67.2917 3.43668 66.4169 4.50255 66.3809C5.26982 66.3561 6.04867 66.5037 6.83909 66.8237C8.05266 67.3141 8.92692 68.1397 9.46185 69.3005C9.687 69.7865 9.784 70.5485 9.93969 70.9685C10.2894 71.9069 10.8247 72.7361 11.808 72.9785Z" fill="#FCEFDA"/>
<path d="M82.837 56.1476C83.6944 53.9096 82.762 51.4695 80.7546 50.6974C78.7471 49.9253 76.4247 51.1135 75.5674 53.3514C74.71 55.5893 75.6424 58.0295 77.6498 58.8016C79.6573 59.5737 81.9797 58.3855 82.837 56.1476Z" fill="#FCEFDA"/>
<path d="M96.7817 51.5574C97.2979 51.9306 97.9793 52.5042 98.3506 53.127C98.8799 54.015 99.246 54.8058 99.4488 55.4994C99.9246 57.133 100.092 58.9742 99.9518 61.023C99.943 61.1502 99.854 61.7842 99.6847 62.925C99.5873 63.5802 99.4572 64.2058 99.2943 64.8018C98.7015 66.9666 98.0033 69.0149 97.026 71.0213C96.3466 72.4157 95.4096 73.7757 94.2152 75.1013C93.9893 75.3517 93.4855 75.7673 92.7038 76.3481C91.8176 77.0081 90.3266 77.5697 89.2835 77.6045C86.9865 77.6801 85.2787 75.3785 84.7098 73.3661C84.4352 72.3941 84.2064 71.3345 84.0236 70.1873C83.9254 69.5681 83.935 68.9262 83.8607 68.2722C83.8344 68.0354 83.8192 67.779 83.8152 67.503C83.7721 64.8534 84.0292 62.269 84.5865 59.7498C84.9114 58.2802 85.3988 56.8386 86.0487 55.425C86.7705 53.8554 87.8495 52.5678 89.2859 51.5622C89.9853 51.0726 90.6044 50.8686 91.5386 50.6442C92.7761 50.3466 94.026 50.399 95.2883 50.8014C95.82 50.971 96.3178 51.223 96.7817 51.5574ZM91.5218 67.9854C92.7458 67.6338 93.2955 66.4662 93.6176 65.3214C93.9777 64.0438 94.1434 62.6918 94.1146 61.2654C94.0955 60.2934 93.8308 58.341 92.6116 58.089C91.5553 57.8706 90.814 59.0874 90.5098 59.991C90.2527 60.755 90.0931 61.3342 90.0308 61.7286C89.9126 62.4782 89.8503 63.3378 89.844 64.3074C89.8416 64.6714 89.8595 64.9986 89.8978 65.289C90.0224 66.2262 90.1122 67.8966 91.4032 67.9974C91.4436 68.0005 91.4838 67.9965 91.5218 67.9854Z" fill="#FCEFDA"/>
<path d="M77.08 89.8086C76.2069 89.6178 75.5543 88.6194 75.3495 87.813C75.2672 87.4906 75.2205 87.1318 75.2093 86.7366C75.1942 86.1926 75.2501 85.3622 75.377 84.2454C75.601 82.2846 76.0117 79.7083 76.1255 77.5843C76.1758 76.6303 76.2716 75.8959 76.2752 75.0211C76.28 73.6851 76.2772 72.7899 76.2668 72.3355C76.2309 70.8139 76.0477 68.8579 75.7087 67.1311C75.5523 66.3311 75.4664 65.7807 75.4513 65.4799C75.3662 63.8335 75.8788 62.5711 77.2896 61.7419C77.8333 61.4227 78.2117 61.2335 78.4249 61.1743C80.2465 60.6667 82.3686 61.3711 82.3447 63.5539C82.3239 65.3771 82.2357 67.2083 82.08 69.0475C82.0305 69.6339 82.0142 70.1867 82.0309 70.7059C82.0629 71.6723 82.0864 72.2259 82.1016 72.3667C82.2633 73.9315 82.3207 75.1723 82.5459 76.5583C82.8086 78.1791 82.9786 79.1455 83.0561 79.4574C83.3419 80.611 83.5675 81.6462 83.7327 82.563C83.9303 83.6634 84.0321 84.3642 83.8201 85.3878C83.579 86.5534 83.0058 87.499 82.1004 88.2246C80.6668 89.373 78.898 90.2058 77.08 89.8086Z" fill="#FCEFDA"/>
<path d="M50.2667 88.0482C51.5374 88.7946 51.9314 90.993 52.0248 92.2998C52.06 92.7918 52.0723 93.105 52.0619 93.2394C52.018 93.7842 51.8987 94.359 51.7039 94.9638C51.533 95.4966 51.2635 96.0146 50.8955 96.5178C49.828 97.977 48.408 99.0081 46.6356 99.6113C46.1326 99.7817 45.3733 99.9005 44.9302 99.9473C43.8971 100.058 42.9465 99.9945 42.0787 99.7578C41.3505 99.5586 40.4092 99.0221 39.9781 98.3573C39.426 97.5077 39.1505 96.2322 39.1362 95.2338C39.1202 94.0426 39.3485 92.887 39.8212 91.767C40.0471 91.2334 40.4096 90.845 40.9086 90.6018C41.0667 90.5242 41.2879 90.507 41.5721 90.5502C42.1278 90.633 42.7434 90.8586 43.3266 90.8922C45.0619 90.9918 46.905 90.5958 48.2643 89.3874C48.8647 88.853 49.3106 88.4618 49.6021 88.2138C49.7242 88.1098 49.8999 88.045 50.129 88.0194C50.1772 88.0139 50.2255 88.024 50.2667 88.0482Z" fill="#FCEFDA"/>
</svg>
