<svg width="44" height="44" viewBox="0 0 44 44" fill="none" xmlns="http://www.w3.org/2000/svg">
<circle cx="22" cy="22" r="21" fill="#FCEFDA" fill-opacity="0.1" stroke="#FCEFDA" stroke-width="2"/>
<path d="M10 34L11.687 27.837C10.646 26.033 10.099 23.988 10.1 21.891C10.103 15.335 15.438 10 21.993 10C25.174 10.001 28.16 11.24 30.406 13.488C32.6509 15.736 33.8869 18.724 33.8859 21.902C33.8829 28.459 28.548 33.794 21.993 33.794C20.003 33.793 18.042 33.294 16.305 32.346L10 34ZM16.597 30.193C18.273 31.188 19.873 31.784 21.989 31.785C27.437 31.785 31.875 27.351 31.878 21.9C31.88 16.438 27.463 12.01 21.997 12.008C16.545 12.008 12.11 16.442 12.108 21.892C12.107 24.117 12.759 25.783 13.854 27.526L12.855 31.174L16.597 30.193ZM27.984 24.729C27.91 24.605 27.712 24.531 27.414 24.382C27.117 24.233 25.656 23.514 25.383 23.415C25.111 23.316 24.913 23.266 24.714 23.564C24.516 23.861 23.946 24.531 23.773 24.729C23.6 24.927 23.426 24.952 23.129 24.803C22.832 24.654 21.874 24.341 20.739 23.328C19.856 22.54 19.259 21.567 19.086 21.269C18.913 20.972 19.068 20.811 19.216 20.663C19.35 20.53 19.513 20.316 19.662 20.142C19.813 19.97 19.862 19.846 19.962 19.647C20.061 19.449 20.012 19.275 19.937 19.126C19.862 18.978 19.268 17.515 19.021 16.92C18.779 16.341 18.534 16.419 18.352 16.41L17.782 16.4C17.584 16.4 17.262 16.474 16.99 16.772C16.718 17.07 15.95 17.788 15.95 19.251C15.95 20.714 17.015 22.127 17.163 22.325C17.312 22.523 19.258 25.525 22.239 26.812C22.948 27.118 23.502 27.301 23.933 27.438C24.645 27.664 25.293 27.632 25.805 27.556C26.376 27.471 27.563 26.837 27.811 26.143C28.059 25.448 28.059 24.853 27.984 24.729Z" fill="#FCEFDA"/>
</svg>
